<svg id="Layer_1" enable-background="new 0 0 256 256" height="512" viewBox="0 0 256 256" width="512" xmlns="http://www.w3.org/2000/svg"><g><g><g><g><g><path d="m80.049 4.042v111.616h6.477v-106.795l-4.867-5.587c-.594-.682-1.61-.198-1.61.766z" fill="#4671c6"/></g></g><g><g><path d="m94.51 68.658h-22.715v-14.969c0-2.113 1.713-3.826 3.826-3.826h15.063c2.113 0 3.826 1.713 3.826 3.826z" fill="#e0ebfc"/></g></g><g><g><path d="m94.509 70.658h-22.714c-1.104 0-2-.896-2-2v-14.969c0-3.212 2.613-5.826 5.825-5.826h15.063c3.212 0 5.825 2.613 5.825 5.826v14.969c.001 1.105-.894 2-1.999 2zm-20.714-4h18.714v-12.969c0-1.007-.819-1.826-1.825-1.826h-15.063c-1.006 0-1.825.819-1.825 1.826v12.969z" fill="#3762cc"/></g></g><g><g><path d="m75.158 217.385h16.259v31.322h-16.259z" fill="#e0ebfc"/></g></g><g><g><path d="m104.695 211.509h-42.814v-142.093c0-3.588 2.909-6.496 6.496-6.496h29.821c3.588 0 6.496 2.909 6.496 6.496v142.093z" fill="#e0ebfc"/></g></g><g><g><path d="m11.092 120.77h144.392v28.692h-144.392z" fill="#a4c9ff" transform="matrix(0 1 -1 0 218.403 51.828)"/></g></g><g><g><path d="m91.417 250.707h-16.258c-1.104 0-2-.896-2-2v-31.322c0-1.104.896-2 2-2h16.258c1.104 0 2 .896 2 2v31.322c0 1.105-.896 2-2 2zm-14.258-4h12.258v-27.322h-12.258z" fill="#3762cc"/></g></g><g><g><path d="m104.695 213.509h-42.814c-1.104 0-2-.896-2-2v-142.092c0-4.685 3.812-8.497 8.497-8.497h29.821c4.685 0 8.497 3.812 8.497 8.497v142.092c-.001 1.104-.897 2-2.001 2zm-40.814-4h38.814v-140.092c0-2.479-2.017-4.497-4.497-4.497h-29.821c-2.479 0-4.497 2.017-4.497 4.497v140.092z" fill="#3762cc"/></g></g><g><g><path d="m111.52 207.311h-56.465c-1.794 0-3.248 1.454-3.248 3.248v3.577c0 1.794 1.454 3.248 3.248 3.248h56.465c1.794 0 3.248-1.454 3.248-3.248v-3.577c0-1.793-1.454-3.248-3.248-3.248z" fill="#4671c6"/></g></g><g><g><path d="m111.52 219.385h-56.465c-2.894 0-5.248-2.354-5.248-5.248v-3.578c0-2.894 2.354-5.248 5.248-5.248h56.465c2.894 0 5.249 2.354 5.249 5.248v3.578c0 2.894-2.355 5.248-5.249 5.248zm-56.465-10.073c-.688 0-1.248.56-1.248 1.248v3.578c0 .688.56 1.248 1.248 1.248h56.465c.688 0 1.249-.56 1.249-1.248v-3.578c0-.688-.56-1.248-1.249-1.248z" fill="#3762cc"/></g></g><g><g><path d="m75.803 93.806h-13.922c-1.104 0-2-.896-2-2s.896-2 2-2h13.922c1.104 0 2 .896 2 2s-.895 2-2 2z" fill="#3762cc"/></g></g><g><g><path d="m83.152 115.461h-21.271c-1.104 0-2-.896-2-2s.896-2 2-2h21.271c1.104 0 2 .896 2 2s-.895 2-2 2z" fill="#3762cc"/></g></g><g><g><path d="m75.803 137.116h-13.922c-1.104 0-2-.896-2-2s.896-2 2-2h13.922c1.104 0 2 .896 2 2s-.895 2-2 2z" fill="#3762cc"/></g></g><g><g><path d="m83.152 158.771h-21.271c-1.104 0-2-.896-2-2s.896-2 2-2h21.271c1.104 0 2 .896 2 2s-.895 2-2 2z" fill="#3762cc"/></g></g><g><g><path d="m75.803 180.426h-13.922c-1.104 0-2-.896-2-2s.896-2 2-2h13.922c1.104 0 2 .896 2 2s-.895 2-2 2z" fill="#3762cc"/></g></g><g><g><path d="m103.435 242.969h-40.295c-2.782 0-5.037 2.255-5.037 5.037 0 2.782 2.255 5.037 5.037 5.037h40.295c2.782 0 5.037-2.255 5.037-5.037 0-2.782-2.255-5.037-5.037-5.037z" fill="#4671c6"/></g></g><g><g><path d="m103.436 255.042h-40.296c-3.88 0-7.037-3.157-7.037-7.037s3.157-7.037 7.037-7.037h40.295c3.88 0 7.037 3.157 7.037 7.037 0 3.881-3.157 7.037-7.036 7.037zm-40.296-10.073c-1.675 0-3.037 1.362-3.037 3.037 0 1.674 1.362 3.037 3.037 3.037h40.295c1.674 0 3.037-1.362 3.037-3.037s-1.362-3.037-3.037-3.037z" fill="#3762cc"/></g></g></g></g><g><g><path d="m190.693 96.255v-19.881h-40v19.881l-10.172 3.608c-1.995.708-3.328 2.595-3.328 4.712 0 2.62 0 83.316 0 82.298 0 3.314 2.686 6 6 6h55c3.314 0 6-2.686 6-6 0-2.616 0-84.894 0-82.298 0-2.117-1.333-4.005-3.328-4.712z" fill="#4671c6"/></g></g><g><g><path d="m137.193 114.521h67v60h-67z" fill="#e0ebfc"/></g></g><g><g><path d="m185.774 139.202h-9.763v-9.763c0-.928-.752-1.68-1.68-1.68h-7.278c-.928 0-1.68.752-1.68 1.68v9.763h-9.763c-.928 0-1.68.752-1.68 1.68v7.278c0 .928.752 1.68 1.68 1.68h9.763v9.763c0 .928.752 1.68 1.68 1.68h7.278c.928 0 1.68-.752 1.68-1.68v-9.763h9.763c.928 0 1.68-.752 1.68-1.68v-7.278c0-.928-.752-1.68-1.68-1.68z" fill="#f9a7a7"/></g></g><g><g><path d="m198.193 194.874h-55c-4.404 0-7.989-3.579-8-7.981 0-.003 0-.006 0-.009v-82.308c0-2.957 1.872-5.608 4.659-6.597l8.841-3.136v-18.469c0-1.104.896-2 2-2h40c1.104 0 2 .896 2 2v18.469l8.84 3.136c2.746.975 4.604 3.563 4.659 6.466.001.023.001.047.001.071v82.358c0 4.411-3.589 8-8 8zm-59-8c0 2.206 1.794 4 4 4h55c2.206 0 4-1.794 4-4v-82.298c0-1.267-.803-2.403-1.998-2.828l-10.171-3.608c-.798-.283-1.331-1.038-1.331-1.885v-17.881h-36v17.881c0 .847-.533 1.602-1.331 1.885l-10.172 3.608c-1.194.424-1.997 1.56-1.997 2.828z" fill="#3762cc"/></g></g><g><g><path d="m204.193 176.521h-67c-1.104 0-2-.896-2-2v-60c0-1.104.896-2 2-2h67c1.104 0 2 .896 2 2v60c0 1.104-.895 2-2 2zm-65-4h63v-56h-63z" fill="#3762cc"/></g></g><g><g><path d="m174.332 163.282h-7.278c-2.029 0-3.68-1.651-3.68-3.68v-7.763h-7.763c-2.029 0-3.68-1.651-3.68-3.68v-7.278c0-2.029 1.65-3.679 3.68-3.679h7.763v-7.763c0-2.029 1.65-3.68 3.68-3.68h7.278c2.029 0 3.68 1.651 3.68 3.68v7.763h7.763c2.029 0 3.68 1.65 3.68 3.679v7.278c0 2.029-1.65 3.68-3.68 3.68h-7.763v7.763c0 2.029-1.651 3.68-3.68 3.68zm-6.958-4h6.638v-9.442c0-1.104.896-2 2-2h9.442v-6.637h-9.442c-1.104 0-2-.896-2-2v-9.442h-6.638v9.442c0 1.104-.896 2-2 2h-9.442v6.637h9.442c1.104 0 2 .896 2 2zm18.4-18.08h.01z" fill="#3762cc"/></g></g><g><g><path d="m198.193 92.041h-55c-1.657 0-3-1.343-3-3v-19c0-1.657 1.343-3 3-3h55c1.657 0 3 1.343 3 3v19c0 1.656-1.343 3-3 3z" fill="#6bdddd"/></g></g><g><g><path d="m198.193 94.041h-55c-2.757 0-5-2.243-5-5v-19c0-2.757 2.243-5 5-5h55c2.757 0 5 2.243 5 5v19c0 2.756-2.243 5-5 5zm-55-25c-.552 0-1 .449-1 1v19c0 .551.448 1 1 1h55c.552 0 1-.449 1-1v-19c0-.551-.448-1-1-1z" fill="#3762cc"/></g></g></g></svg>