<svg id="Layer_1" enable-background="new 0 0 256 256" height="512" viewBox="0 0 256 256" width="512" xmlns="http://www.w3.org/2000/svg"><g><g><g><path d="m175.893 163.149h-19.777c0-15.429 0-25.88 0-43.419h-56.286v43.419h-19.723c-15.559 0-28.172 12.613-28.172 28.172v61.68h152.13c0-8.774 0-52.81 0-61.68 0-15.559-12.613-28.172-28.172-28.172z" fill="#f9cfcf"/></g></g><g><g><path d="m75.6 255c-1.104 0-2-.896-2-2v-42.333c0-1.104.896-2 2-2s2 .896 2 2v42.333c0 1.104-.896 2-2 2z" fill="#3762cc"/></g></g><g><g><path d="m180.4 255c-1.104 0-2-.896-2-2v-42.333c0-1.104.896-2 2-2s2 .896 2 2v42.333c0 1.104-.895 2-2 2z" fill="#3762cc"/></g></g><g><g><path d="m204.065 255h-152.13c-1.104 0-2-.896-2-2v-61.68c0-16.637 13.535-30.172 30.173-30.172h17.722v-41.419c0-1.104.896-2 2-2h56.285c1.104 0 2 .896 2 2v41.419h17.777c16.638 0 30.173 13.535 30.173 30.172v61.68c0 1.104-.895 2-2 2zm-150.13-4h148.131v-59.68c0-14.431-11.741-26.172-26.173-26.172h-19.777c-1.104 0-2-.896-2-2v-41.419h-52.286v41.419c0 1.104-.896 2-2 2h-19.723c-14.432 0-26.173 11.741-26.173 26.172v59.68z" fill="#3762cc"/></g></g><g><g><path d="m128 143.373c-36.448 0-65.994-29.547-65.994-65.994v-27.641c0-9.161 7.427-16.588 16.588-16.588h115.4v44.23c0 36.447-29.546 65.993-65.994 65.993z" fill="#4671c6"/></g></g><g><g><path d="m128 145.373c-37.492 0-67.994-30.502-67.994-67.994v-27.641c0-10.25 8.339-18.588 18.588-18.588h115.4c1.104 0 2 .896 2 2v44.23c0 37.491-30.502 67.993-67.994 67.993zm-49.406-110.224c-8.044 0-14.588 6.544-14.588 14.588v27.642c0 35.286 28.708 63.994 63.994 63.994s63.994-28.708 63.994-63.994v-42.23z" fill="#3762cc"/></g></g><g><g><path d="m184.207 81.84v-5.263c0-30.763-25.165-55.701-56.207-55.701-31.043 0-56.207 24.938-56.207 55.701v5.263c-9.76-.198-17.503 7.577-17.503 16.976 0 10.036 8.761 17.974 18.988 16.893 5.801 24.644 28.092 43.004 54.723 43.004 26.633 0 48.923-18.362 54.723-43.004 10.213 1.08 18.988-6.843 18.988-16.893-.001-9.403-7.751-17.174-17.505-16.976z" fill="#f9cfcf"/></g></g><g><g><path d="m127.993 131.871c-2.268 0-4.244-.266-6.041-.813-2.984-.908-5.599-2.434-7.56-4.412-.778-.784-.772-2.05.012-2.828s2.052-.773 2.828.012c1.497 1.509 3.531 2.685 5.884 3.401 1.414.431 3.01.64 4.877.64s3.462-.209 4.876-.64c2.352-.715 4.387-1.892 5.885-3.401.779-.784 2.044-.789 2.829-.011.783.778.788 2.044.011 2.828-1.963 1.978-4.577 3.503-7.561 4.411-1.797.547-3.772.813-6.04.813z" fill="#3762cc"/></g></g><g><g><path d="m157.181 110.391c-3.924 0-7.104-3.181-7.104-7.104v-7.578c0-3.924 3.181-7.104 7.104-7.104 3.924 0 7.104 3.181 7.104 7.104v7.578c0 3.923-3.181 7.104-7.104 7.104z" fill="#3762cc"/></g></g><g><g><path d="m98.805 110.391c-3.924 0-7.104-3.181-7.104-7.104v-7.578c0-3.924 3.181-7.104 7.104-7.104 3.924 0 7.104 3.181 7.104 7.104v7.578c0 3.923-3.18 7.104-7.104 7.104z" fill="#3762cc"/></g></g><g><g><path d="m128 160.713c-26.623 0-49.519-17.56-56.26-42.91-4.846.077-9.561-1.673-13.165-4.917-3.995-3.595-6.286-8.723-6.286-14.07 0-5.119 2.022-9.919 5.694-13.518 3.215-3.149 7.35-5.026 11.81-5.394v-3.327c0-31.816 26.111-57.701 58.207-57.701s58.207 25.885 58.207 57.701v3.327c4.46.368 8.594 2.245 11.81 5.395 3.672 3.599 5.694 8.399 5.694 13.517 0 5.347-2.29 10.475-6.284 14.068-3.605 3.245-8.314 5.005-13.167 4.918-6.74 25.351-29.636 42.911-56.26 42.911zm-54.721-47.005c.917 0 1.73.631 1.945 1.542 5.746 24.413 27.448 41.462 52.775 41.462 25.328 0 47.03-17.05 52.775-41.462.231-.981 1.15-1.643 2.157-1.531 4.308.457 8.622-.933 11.819-3.809 3.151-2.836 4.959-6.88 4.959-11.095 0-4.034-1.596-7.82-4.494-10.66-2.927-2.868-6.846-4.395-10.969-4.316-.525.023-1.057-.195-1.44-.571-.384-.376-.601-.891-.601-1.429v-5.263c0-29.611-24.317-53.701-54.207-53.701s-54.207 24.09-54.207 53.701v5.263c0 .538-.217 1.052-.601 1.429-.384.375-.904.596-1.44.571-.107-.002-.216-.003-.324-.003-4.026 0-7.795 1.526-10.645 4.319-2.898 2.84-4.494 6.626-4.494 10.661 0 4.215 1.809 8.259 4.962 11.097 3.194 2.875 7.491 4.262 11.816 3.807.073-.008.144-.012.214-.012z" fill="#3762cc"/></g></g><g><g><path d="m193.994 71.036h-88.183c-18.788 0-34.018-15.23-34.018-34.018 0-18.788 15.23-34.018 34.018-34.018h57.721c16.824 0 30.462 13.638 30.462 30.462z" fill="#4671c6"/></g></g><g><g><path d="m193.994 73.036h-88.184c-19.86 0-36.018-16.158-36.018-36.018s16.158-36.018 36.019-36.018h57.721c17.9 0 32.463 14.563 32.463 32.462v37.574c-.001 1.105-.896 2-2.001 2zm-88.183-68.036c-17.655 0-32.018 14.363-32.018 32.018s14.363 32.018 32.018 32.018h86.184v-35.574c-.001-15.694-12.769-28.462-28.464-28.462z" fill="#3762cc"/></g></g><g><g><path d="m124.344 240.816c2.192 1.651 5.213 1.648 7.402-.008l26.681-20.185c7.521-5.666 10.164-15.756 6.386-24.38-4.101-9.364-14.521-14.223-24.33-11.345-5.604 1.644-10.048 5.544-12.501 10.512-2.452-4.968-6.896-8.868-12.5-10.512-10.307-3.023-21.288 2.494-24.905 12.805-2.967 8.46.26 17.873 7.421 23.267z" fill="#f9a7a7"/></g></g><g><g><path d="m128.04 244.044c-1.728 0-3.456-.543-4.898-1.63l-26.346-19.846c-7.944-5.985-11.278-16.482-8.106-25.527 3.94-11.229 15.958-17.406 27.355-14.063 4.842 1.42 9.05 4.458 11.938 8.537 2.889-4.079 7.096-7.116 11.938-8.537 10.743-3.152 22.232 2.206 26.725 12.462 4.168 9.517 1.283 20.529-7.015 26.78l-26.678 20.183c-1.445 1.094-3.18 1.641-4.913 1.641zm-18.276-57.972c-7.597 0-14.658 4.763-17.299 12.292-2.603 7.42.168 16.059 6.737 21.008l26.346 19.846h.001c1.47 1.107 3.522 1.105 4.99-.005l26.682-20.186c6.814-5.133 9.182-14.172 5.761-21.983-3.687-8.417-13.114-12.814-21.936-10.229-4.898 1.437-9.006 4.892-11.271 9.479-.337.683-1.031 1.115-1.793 1.115s-1.456-.432-1.793-1.115c-2.265-4.586-6.372-8.042-11.271-9.479-1.715-.502-3.448-.743-5.154-.743z" fill="#3762cc"/></g></g></g></svg>